<svg width="820" height="410" xmlns="http://www.w3.org/2000/svg">
<style>
text { font-family:Arial, Helvetica, sans-serif;font-size:9pt;fill:#00 }
.axis { none; stroke-width: 1; stroke: #555 }
.grid { fill: none; stroke-width: 0.5; stroke: #ddd }
</style>
<defs>
</defs>
<g transform="translate(50 340)">
<rect x="0" y="-300" width="750" height="300" style="fill:#fff;stroke:#ddd;stroke-width:0.5" />
<g>
<text x="0.0" y="15" text-anchor="middle">-180&#xb0;</text>
<line class="grid" x1="0.0" y1="0" x2="0.0" y2="-300" />
<text x="93.8" y="15" text-anchor="middle">-135&#xb0;</text>
<line class="grid" x1="93.8" y1="0" x2="93.8" y2="-300" />
<text x="187.5" y="15" text-anchor="middle">-90&#xb0;</text>
<line class="grid" x1="187.5" y1="0" x2="187.5" y2="-300" />
<text x="281.3" y="15" text-anchor="middle">-45&#xb0;</text>
<line class="grid" x1="281.3" y1="0" x2="281.3" y2="-300" />
<text x="375.0" y="15" text-anchor="middle">0&#xb0;</text>
<line class="grid" x1="375.0" y1="0" x2="375.0" y2="-300" />
<text x="468.8" y="15" text-anchor="middle">45&#xb0;</text>
<line class="grid" x1="468.8" y1="0" x2="468.8" y2="-300" />
<text x="562.5" y="15" text-anchor="middle">90&#xb0;</text>
<line class="grid" x1="562.5" y1="0" x2="562.5" y2="-300" />
<text x="656.3" y="15" text-anchor="middle">135&#xb0;</text>
<line class="grid" x1="656.3" y1="0" x2="656.3" y2="-300" />
<text x="750.0" y="15" text-anchor="middle">180&#xb0;</text>
<line class="grid" x1="750.0" y1="0" x2="750.0" y2="-300" />
<text x="-5" y="5.0" text-anchor="end" >-1.0</text>
<line class="grid" x1="0" y1="-0.0" x2="750" y2="-0.0" />
<text x="-5" y="-70.0" text-anchor="end" >-0.5</text>
<line class="grid" x1="0" y1="-75.0" x2="750" y2="-75.0" />
<text x="-5" y="-145.0" text-anchor="end" >0.0</text>
<line class="grid" x1="0" y1="-150.0" x2="750" y2="-150.0" />
<text x="-5" y="-220.0" text-anchor="end" >0.5</text>
<line class="grid" x1="0" y1="-225.0" x2="750" y2="-225.0" />
<text x="-5" y="-295.0" text-anchor="end" >1.0</text>
<line class="grid" x1="0" y1="-300.0" x2="750" y2="-300.0" />
</g>
<g>
<path d="M0.0,-0.0 L2.1,-0.0 L4.2,-0.1 L6.3,-0.2 L8.3,-0.4 L10.4,-0.6 L12.5,-0.8 L14.6,-1.1 L16.7,-1.5 L18.8,-1.8 L20.8,-2.3 L22.9,-2.8 L25.0,-3.3 L27.1,-3.8 L29.2,-4.5 L31.3,-5.1 L33.3,-5.8 L35.4,-6.6 L37.5,-7.3 L39.6,-8.2 L41.7,-9.0 L43.8,-10.0 L45.8,-10.9 L47.9,-11.9 L50.0,-13.0 L52.1,-14.1 L54.2,-15.2 L56.3,-16.3 L58.3,-17.6 L60.4,-18.8 L62.5,-20.1 L64.6,-21.4 L66.7,-22.8 L68.8,-24.2 L70.8,-25.6 L72.9,-27.1 L75.0,-28.6 L77.1,-30.2 L79.2,-31.8 L81.3,-33.4 L83.3,-35.1 L85.4,-36.8 L87.5,-38.5 L89.6,-40.3 L91.7,-42.1 L93.8,-43.9 L95.8,-45.8 L97.9,-47.7 L100.0,-49.6 L102.1,-51.6 L104.2,-53.6 L106.3,-55.6 L108.3,-57.7 L110.4,-59.7 L112.5,-61.8 L114.6,-64.0 L116.7,-66.1 L118.8,-68.3 L120.8,-70.5 L122.9,-72.7 L125.0,-75.0 L127.1,-77.3 L129.2,-79.6 L131.3,-81.9 L133.3,-84.2 L135.4,-86.6 L137.5,-89.0 L139.6,-91.4 L141.7,-93.8 L143.8,-96.2 L145.8,-98.7 L147.9,-101.2 L150.0,-103.6 L152.1,-106.1 L154.2,-108.7 L156.3,-111.2 L158.3,-113.7 L160.4,-116.3 L162.5,-118.8 L164.6,-121.4 L166.7,-124.0 L168.8,-126.5 L170.8,-129.1 L172.9,-131.7 L175.0,-134.3 L177.1,-136.9 L179.2,-139.5 L181.3,-142.1 L183.3,-144.8 L185.4,-147.4 L187.5,-150.0 L189.6,-152.6 L191.7,-155.2 L193.8,-157.9 L195.8,-160.5 L197.9,-163.1 L200.0,-165.7 L202.1,-168.3 L204.2,-170.9 L206.3,-173.5 L208.3,-176.0 L210.4,-178.6 L212.5,-181.2 L214.6,-183.7 L216.7,-186.3 L218.8,-188.8 L220.8,-191.3 L222.9,-193.9 L225.0,-196.4 L227.1,-198.8 L229.2,-201.3 L231.3,-203.8 L233.3,-206.2 L235.4,-208.6 L237.5,-211.0 L239.6,-213.4 L241.7,-215.8 L243.8,-218.1 L245.8,-220.4 L247.9,-222.7 L250.0,-225.0 L252.1,-227.3 L254.2,-229.5 L256.3,-231.7 L258.3,-233.9 L260.4,-236.0 L262.5,-238.2 L264.6,-240.3 L266.7,-242.3 L268.8,-244.4 L270.8,-246.4 L272.9,-248.4 L275.0,-250.4 L277.1,-252.3 L279.2,-254.2 L281.3,-256.1 L283.3,-257.9 L285.4,-259.7 L287.5,-261.5 L289.6,-263.2 L291.7,-264.9 L293.8,-266.6 L295.8,-268.2 L297.9,-269.8 L300.0,-271.4 L302.1,-272.9 L304.2,-274.4 L306.3,-275.8 L308.3,-277.2 L310.4,-278.6 L312.5,-279.9 L314.6,-281.2 L316.7,-282.4 L318.8,-283.7 L320.8,-284.8 L322.9,-285.9 L325.0,-287.0 L327.1,-288.1 L329.2,-289.1 L331.3,-290.0 L333.3,-291.0 L335.4,-291.8 L337.5,-292.7 L339.6,-293.4 L341.7,-294.2 L343.8,-294.9 L345.8,-295.5 L347.9,-296.2 L350.0,-296.7 L352.1,-297.2 L354.2,-297.7 L356.3,-298.2 L358.3,-298.5 L360.4,-298.9 L362.5,-299.2 L364.6,-299.4 L366.7,-299.6 L368.8,-299.8 L370.8,-299.9 L372.9,-300.0 L375.0,-300.0 L377.1,-300.0 L379.2,-299.9 L381.3,-299.8 L383.3,-299.6 L385.4,-299.4 L387.5,-299.2 L389.6,-298.9 L391.7,-298.5 L393.8,-298.2 L395.8,-297.7 L397.9,-297.2 L400.0,-296.7 L402.1,-296.2 L404.2,-295.5 L406.3,-294.9 L408.3,-294.2 L410.4,-293.4 L412.5,-292.7 L414.6,-291.8 L416.7,-291.0 L418.8,-290.0 L420.8,-289.1 L422.9,-288.1 L425.0,-287.0 L427.1,-285.9 L429.2,-284.8 L431.2,-283.7 L433.3,-282.4 L435.4,-281.2 L437.5,-279.9 L439.6,-278.6 L441.7,-277.2 L443.8,-275.8 L445.8,-274.4 L447.9,-272.9 L450.0,-271.4 L452.1,-269.8 L454.2,-268.2 L456.2,-266.6 L458.3,-264.9 L460.4,-263.2 L462.5,-261.5 L464.6,-259.7 L466.7,-257.9 L468.8,-256.1 L470.8,-254.2 L472.9,-252.3 L475.0,-250.4 L477.1,-248.4 L479.2,-246.4 L481.3,-244.4 L483.3,-242.3 L485.4,-240.3 L487.5,-238.2 L489.6,-236.0 L491.7,-233.9 L493.8,-231.7 L495.8,-229.5 L497.9,-227.3 L500.0,-225.0 L502.1,-222.7 L504.2,-220.4 L506.3,-218.1 L508.3,-215.8 L510.4,-213.4 L512.5,-211.0 L514.6,-208.6 L516.7,-206.2 L518.8,-203.8 L520.8,-201.3 L522.9,-198.8 L525.0,-196.4 L527.1,-193.9 L529.2,-191.3 L531.3,-188.8 L533.3,-186.3 L535.4,-183.7 L537.5,-181.2 L539.6,-178.6 L541.7,-176.0 L543.8,-173.5 L545.8,-170.9 L547.9,-168.3 L550.0,-165.7 L552.1,-163.1 L554.2,-160.5 L556.3,-157.9 L558.3,-155.2 L560.4,-152.6 L562.5,-150.0 L564.6,-147.4 L566.7,-144.8 L568.8,-142.1 L570.8,-139.5 L572.9,-136.9 L575.0,-134.3 L577.1,-131.7 L579.2,-129.1 L581.3,-126.5 L583.3,-124.0 L585.4,-121.4 L587.5,-118.8 L589.6,-116.3 L591.7,-113.7 L593.8,-111.2 L595.8,-108.7 L597.9,-106.1 L600.0,-103.6 L602.1,-101.2 L604.2,-98.7 L606.3,-96.2 L608.3,-93.8 L610.4,-91.4 L612.5,-89.0 L614.6,-86.6 L616.7,-84.2 L618.8,-81.9 L620.8,-79.6 L622.9,-77.3 L625.0,-75.0 L627.1,-72.7 L629.2,-70.5 L631.3,-68.3 L633.3,-66.1 L635.4,-64.0 L637.5,-61.8 L639.6,-59.7 L641.7,-57.7 L643.8,-55.6 L645.8,-53.6 L647.9,-51.6 L650.0,-49.6 L652.1,-47.7 L654.2,-45.8 L656.3,-43.9 L658.3,-42.1 L660.4,-40.3 L662.5,-38.5 L664.6,-36.8 L666.7,-35.1 L668.8,-33.4 L670.8,-31.8 L672.9,-30.2 L675.0,-28.6 L677.1,-27.1 L679.2,-25.6 L681.3,-24.2 L683.3,-22.8 L685.4,-21.4 L687.5,-20.1 L689.6,-18.8 L691.7,-17.6 L693.8,-16.3 L695.8,-15.2 L697.9,-14.1 L700.0,-13.0 L702.1,-11.9 L704.2,-10.9 L706.3,-10.0 L708.3,-9.0 L710.4,-8.2 L712.5,-7.3 L714.6,-6.6 L716.7,-5.8 L718.8,-5.1 L720.8,-4.5 L722.9,-3.8 L725.0,-3.3 L727.1,-2.8 L729.2,-2.3 L731.3,-1.8 L733.3,-1.5 L735.4,-1.1 L737.5,-0.8 L739.6,-0.6 L741.7,-0.4 L743.8,-0.2 L745.8,-0.1 L747.9,-0.0 L750.0,-0.0" style="fill:none;stroke:#777;stroke-width:1;stroke-dasharray:2 2" />
<path d="M0.0,-150.0 L2.1,-147.4 L4.2,-144.8 L6.3,-142.1 L8.3,-139.5 L10.4,-136.9 L12.5,-134.3 L14.6,-131.7 L16.7,-129.1 L18.8,-126.5 L20.8,-124.0 L22.9,-121.4 L25.0,-118.8 L27.1,-116.3 L29.2,-113.7 L31.3,-111.2 L33.3,-108.7 L35.4,-106.1 L37.5,-103.6 L39.6,-101.2 L41.7,-98.7 L43.8,-96.2 L45.8,-93.8 L47.9,-91.4 L50.0,-89.0 L52.1,-86.6 L54.2,-84.2 L56.3,-81.9 L58.3,-79.6 L60.4,-77.3 L62.5,-75.0 L64.6,-72.7 L66.7,-70.5 L68.8,-68.3 L70.8,-66.1 L72.9,-64.0 L75.0,-61.8 L77.1,-59.7 L79.2,-57.7 L81.3,-55.6 L83.3,-53.6 L85.4,-51.6 L87.5,-49.6 L89.6,-47.7 L91.7,-45.8 L93.8,-43.9 L95.8,-42.1 L97.9,-40.3 L100.0,-38.5 L102.1,-36.8 L104.2,-35.1 L106.3,-33.4 L108.3,-31.8 L110.4,-30.2 L112.5,-28.6 L114.6,-27.1 L116.7,-25.6 L118.8,-24.2 L120.8,-22.8 L122.9,-21.4 L125.0,-20.1 L127.1,-18.8 L129.2,-17.6 L131.3,-16.3 L133.3,-15.2 L135.4,-14.1 L137.5,-13.0 L139.6,-11.9 L141.7,-10.9 L143.8,-10.0 L145.8,-9.0 L147.9,-8.2 L150.0,-7.3 L152.1,-6.6 L154.2,-5.8 L156.3,-5.1 L158.3,-4.5 L160.4,-3.8 L162.5,-3.3 L164.6,-2.8 L166.7,-2.3 L168.8,-1.8 L170.8,-1.5 L172.9,-1.1 L175.0,-0.8 L177.1,-0.6 L179.2,-0.4 L181.3,-0.2 L183.3,-0.1 L185.4,-0.0 L187.5,-0.0 L189.6,-0.0 L191.7,-0.1 L193.8,-0.2 L195.8,-0.4 L197.9,-0.6 L200.0,-0.8 L202.1,-1.1 L204.2,-1.5 L206.3,-1.8 L208.3,-2.3 L210.4,-2.8 L212.5,-3.3 L214.6,-3.8 L216.7,-4.5 L218.8,-5.1 L220.8,-5.8 L222.9,-6.6 L225.0,-7.3 L227.1,-8.2 L229.2,-9.0 L231.3,-10.0 L233.3,-10.9 L235.4,-11.9 L237.5,-13.0 L239.6,-14.1 L241.7,-15.2 L243.8,-16.3 L245.8,-17.6 L247.9,-18.8 L250.0,-20.1 L252.1,-21.4 L254.2,-22.8 L256.3,-24.2 L258.3,-25.6 L260.4,-27.1 L262.5,-28.6 L264.6,-30.2 L266.7,-31.8 L268.8,-33.4 L270.8,-35.1 L272.9,-36.8 L275.0,-38.5 L277.1,-40.3 L279.2,-42.1 L281.3,-43.9 L283.3,-45.8 L285.4,-47.7 L287.5,-49.6 L289.6,-51.6 L291.7,-53.6 L293.8,-55.6 L295.8,-57.7 L297.9,-59.7 L300.0,-61.8 L302.1,-64.0 L304.2,-66.1 L306.3,-68.3 L308.3,-70.5 L310.4,-72.7 L312.5,-75.0 L314.6,-77.3 L316.7,-79.6 L318.8,-81.9 L320.8,-84.2 L322.9,-86.6 L325.0,-89.0 L327.1,-91.4 L329.2,-93.8 L331.3,-96.2 L333.3,-98.7 L335.4,-101.2 L337.5,-103.6 L339.6,-106.1 L341.7,-108.7 L343.8,-111.2 L345.8,-113.7 L347.9,-116.3 L350.0,-118.8 L352.1,-121.4 L354.2,-124.0 L356.3,-126.5 L358.3,-129.1 L360.4,-131.7 L362.5,-134.3 L364.6,-136.9 L366.7,-139.5 L368.8,-142.1 L370.8,-144.8 L372.9,-147.4 L375.0,-150.0 L377.1,-152.6 L379.2,-155.2 L381.3,-157.9 L383.3,-160.5 L385.4,-163.1 L387.5,-165.7 L389.6,-168.3 L391.7,-170.9 L393.8,-173.5 L395.8,-176.0 L397.9,-178.6 L400.0,-181.2 L402.1,-183.7 L404.2,-186.3 L406.3,-188.8 L408.3,-191.3 L410.4,-193.9 L412.5,-196.4 L414.6,-198.8 L416.7,-201.3 L418.8,-203.8 L420.8,-206.2 L422.9,-208.6 L425.0,-211.0 L427.1,-213.4 L429.2,-215.8 L431.2,-218.1 L433.3,-220.4 L435.4,-222.7 L437.5,-225.0 L439.6,-227.3 L441.7,-229.5 L443.8,-231.7 L445.8,-233.9 L447.9,-236.0 L450.0,-238.2 L452.1,-240.3 L454.2,-242.3 L456.2,-244.4 L458.3,-246.4 L460.4,-248.4 L462.5,-250.4 L464.6,-252.3 L466.7,-254.2 L468.8,-256.1 L470.8,-257.9 L472.9,-259.7 L475.0,-261.5 L477.1,-263.2 L479.2,-264.9 L481.3,-266.6 L483.3,-268.2 L485.4,-269.8 L487.5,-271.4 L489.6,-272.9 L491.7,-274.4 L493.8,-275.8 L495.8,-277.2 L497.9,-278.6 L500.0,-279.9 L502.1,-281.2 L504.2,-282.4 L506.3,-283.7 L508.3,-284.8 L510.4,-285.9 L512.5,-287.0 L514.6,-288.1 L516.7,-289.1 L518.8,-290.0 L520.8,-291.0 L522.9,-291.8 L525.0,-292.7 L527.1,-293.4 L529.2,-294.2 L531.3,-294.9 L533.3,-295.5 L535.4,-296.2 L537.5,-296.7 L539.6,-297.2 L541.7,-297.7 L543.8,-298.2 L545.8,-298.5 L547.9,-298.9 L550.0,-299.2 L552.1,-299.4 L554.2,-299.6 L556.3,-299.8 L558.3,-299.9 L560.4,-300.0 L562.5,-300.0 L564.6,-300.0 L566.7,-299.9 L568.8,-299.8 L570.8,-299.6 L572.9,-299.4 L575.0,-299.2 L577.1,-298.9 L579.2,-298.5 L581.3,-298.2 L583.3,-297.7 L585.4,-297.2 L587.5,-296.7 L589.6,-296.2 L591.7,-295.5 L593.8,-294.9 L595.8,-294.2 L597.9,-293.4 L600.0,-292.7 L602.1,-291.8 L604.2,-291.0 L606.3,-290.0 L608.3,-289.1 L610.4,-288.1 L612.5,-287.0 L614.6,-285.9 L616.7,-284.8 L618.8,-283.7 L620.8,-282.4 L622.9,-281.2 L625.0,-279.9 L627.1,-278.6 L629.2,-277.2 L631.3,-275.8 L633.3,-274.4 L635.4,-272.9 L637.5,-271.4 L639.6,-269.8 L641.7,-268.2 L643.8,-266.6 L645.8,-264.9 L647.9,-263.2 L650.0,-261.5 L652.1,-259.7 L654.2,-257.9 L656.3,-256.1 L658.3,-254.2 L660.4,-252.3 L662.5,-250.4 L664.6,-248.4 L666.7,-246.4 L668.8,-244.4 L670.8,-242.3 L672.9,-240.3 L675.0,-238.2 L677.1,-236.0 L679.2,-233.9 L681.3,-231.7 L683.3,-229.5 L685.4,-227.3 L687.5,-225.0 L689.6,-222.7 L691.7,-220.4 L693.8,-218.1 L695.8,-215.8 L697.9,-213.4 L700.0,-211.0 L702.1,-208.6 L704.2,-206.2 L706.3,-203.8 L708.3,-201.3 L710.4,-198.8 L712.5,-196.4 L714.6,-193.9 L716.7,-191.3 L718.8,-188.8 L720.8,-186.3 L722.9,-183.7 L725.0,-181.2 L727.1,-178.6 L729.2,-176.0 L731.3,-173.5 L733.3,-170.9 L735.4,-168.3 L737.5,-165.7 L739.6,-163.1 L741.7,-160.5 L743.8,-157.9 L745.8,-155.2 L747.9,-152.6 L750.0,-150.0" style="fill:none;stroke:#d00;stroke-width:2" />
</g>
<line class="axis" x1="0" y1="-150.0" x2="750" y2="-150.0" />
<line class="axis" x1="375.0" y1="0" x2="375.0" y2="-300" />
<g>
<line x1="285.0" y1="45.0" x2="315.0" y2="45.0" style="fill:none;stroke:#777;stroke-width:1;stroke-dasharray:2 2" />
<text x="320.0" y="48.0">cos</text>
<line x1="385.0" y1="45.0" x2="415.0" y2="45.0" style="fill:none;stroke:#d00;stroke-width:2" />
<text x="420.0" y="48.0">sin</text>
</g>
</g>
</svg>
