<svg width="805" height="370" xmlns="http://www.w3.org/2000/svg">
<style>
text { font-family: Arial, Helvetica, sans-serif; font-size: 10px; fill: #000 }
.axis { fill: none; stroke-width: 1; stroke: #000 }
.grid { fill: none; stroke-width: 0.5; stroke: #ddd }
</style>
<defs>
</defs>
<g transform="translate(50 320)">
<rect x="0" y="-300" width="750" height="300" style="fill:#fff;stroke:#ddd;stroke-width:0.5" />
<g>
<text x="0.0" y="15" text-anchor="middle">0.0</text>
<line class="grid" x1="0.0" y1="0" x2="0.0" y2="-300" />
<text x="208.3" y="15" text-anchor="middle">100.0</text>
<line class="grid" x1="208.3" y1="0" x2="208.3" y2="-300" />
<text x="416.7" y="15" text-anchor="middle">200.0</text>
<line class="grid" x1="416.7" y1="0" x2="416.7" y2="-300" />
<text x="625.0" y="15" text-anchor="middle">300.0</text>
<line class="grid" x1="625.0" y1="0" x2="625.0" y2="-300" />
<text x="-5" y="5.0" text-anchor="end" >-1.0</text>
<line class="grid" x1="0" y1="-0.0" x2="750" y2="-0.0" />
<text x="-5" y="-145.0" text-anchor="end" >0.0</text>
<line class="grid" x1="0" y1="-150.0" x2="750" y2="-150.0" />
<text x="-5" y="-295.0" text-anchor="end" >1.0</text>
<line class="grid" x1="0" y1="-300.0" x2="750" y2="-300.0" />
</g>
<g>
<path d="M0.0,-300.0 L2.1,-300.0 L4.2,-299.9 L6.3,-299.8 L8.3,-299.6 L10.4,-299.4 L12.5,-299.2 L14.6,-298.9 L16.7,-298.5 L18.8,-298.2 L20.8,-297.7 L22.9,-297.2 L25.0,-296.7 L27.1,-296.2 L29.2,-295.5 L31.3,-294.9 L33.3,-294.2 L35.4,-293.4 L37.5,-292.7 L39.6,-291.8 L41.7,-291.0 L43.8,-290.0 L45.8,-289.1 L47.9,-288.1 L50.0,-287.0 L52.1,-285.9 L54.2,-284.8 L56.3,-283.7 L58.3,-282.4 L60.4,-281.2 L62.5,-279.9 L64.6,-278.6 L66.7,-277.2 L68.8,-275.8 L70.8,-274.4 L72.9,-272.9 L75.0,-271.4 L77.1,-269.8 L79.2,-268.2 L81.3,-266.6 L83.3,-264.9 L85.4,-263.2 L87.5,-261.5 L89.6,-259.7 L91.7,-257.9 L93.8,-256.1 L95.8,-254.2 L97.9,-252.3 L100.0,-250.4 L102.1,-248.4 L104.2,-246.4 L106.3,-244.4 L108.3,-242.3 L110.4,-240.3 L112.5,-238.2 L114.6,-236.0 L116.7,-233.9 L118.8,-231.7 L120.8,-229.5 L122.9,-227.3 L125.0,-225.0 L127.1,-222.7 L129.2,-220.4 L131.3,-218.1 L133.3,-215.8 L135.4,-213.4 L137.5,-211.0 L139.6,-208.6 L141.7,-206.2 L143.8,-203.8 L145.8,-201.3 L147.9,-198.8 L150.0,-196.4 L152.1,-193.9 L154.2,-191.3 L156.3,-188.8 L158.3,-186.3 L160.4,-183.7 L162.5,-181.2 L164.6,-178.6 L166.7,-176.0 L168.8,-173.5 L170.8,-170.9 L172.9,-168.3 L175.0,-165.7 L177.1,-163.1 L179.2,-160.5 L181.3,-157.9 L183.3,-155.2 L185.4,-152.6 L187.5,-150.0 L189.6,-147.4 L191.7,-144.8 L193.8,-142.1 L195.8,-139.5 L197.9,-136.9 L200.0,-134.3 L202.1,-131.7 L204.2,-129.1 L206.3,-126.5 L208.3,-124.0 L210.4,-121.4 L212.5,-118.8 L214.6,-116.3 L216.7,-113.7 L218.8,-111.2 L220.8,-108.7 L222.9,-106.1 L225.0,-103.6 L227.1,-101.2 L229.2,-98.7 L231.3,-96.2 L233.3,-93.8 L235.4,-91.4 L237.5,-89.0 L239.6,-86.6 L241.7,-84.2 L243.8,-81.9 L245.8,-79.6 L247.9,-77.3 L250.0,-75.0 L252.1,-72.7 L254.2,-70.5 L256.3,-68.3 L258.3,-66.1 L260.4,-64.0 L262.5,-61.8 L264.6,-59.7 L266.7,-57.7 L268.8,-55.6 L270.8,-53.6 L272.9,-51.6 L275.0,-49.6 L277.1,-47.7 L279.2,-45.8 L281.3,-43.9 L283.3,-42.1 L285.4,-40.3 L287.5,-38.5 L289.6,-36.8 L291.7,-35.1 L293.8,-33.4 L295.8,-31.8 L297.9,-30.2 L300.0,-28.6 L302.1,-27.1 L304.2,-25.6 L306.3,-24.2 L308.3,-22.8 L310.4,-21.4 L312.5,-20.1 L314.6,-18.8 L316.7,-17.6 L318.8,-16.3 L320.8,-15.2 L322.9,-14.1 L325.0,-13.0 L327.1,-11.9 L329.2,-10.9 L331.3,-10.0 L333.3,-9.0 L335.4,-8.2 L337.5,-7.3 L339.6,-6.6 L341.7,-5.8 L343.8,-5.1 L345.8,-4.5 L347.9,-3.8 L350.0,-3.3 L352.1,-2.8 L354.2,-2.3 L356.3,-1.8 L358.3,-1.5 L360.4,-1.1 L362.5,-0.8 L364.6,-0.6 L366.7,-0.4 L368.8,-0.2 L370.8,-0.1 L372.9,-0.0 L375.0,-0.0 L377.1,-0.0 L379.2,-0.1 L381.3,-0.2 L383.3,-0.4 L385.4,-0.6 L387.5,-0.8 L389.6,-1.1 L391.7,-1.5 L393.8,-1.8 L395.8,-2.3 L397.9,-2.8 L400.0,-3.3 L402.1,-3.8 L404.2,-4.5 L406.3,-5.1 L408.3,-5.8 L410.4,-6.6 L412.5,-7.3 L414.6,-8.2 L416.7,-9.0 L418.8,-10.0 L420.8,-10.9 L422.9,-11.9 L425.0,-13.0 L427.1,-14.1 L429.2,-15.2 L431.3,-16.3 L433.3,-17.6 L435.4,-18.8 L437.5,-20.1 L439.6,-21.4 L441.7,-22.8 L443.8,-24.2 L445.8,-25.6 L447.9,-27.1 L450.0,-28.6 L452.1,-30.2 L454.2,-31.8 L456.3,-33.4 L458.3,-35.1 L460.4,-36.8 L462.5,-38.5 L464.6,-40.3 L466.7,-42.1 L468.8,-43.9 L470.8,-45.8 L472.9,-47.7 L475.0,-49.6 L477.1,-51.6 L479.2,-53.6 L481.3,-55.6 L483.3,-57.7 L485.4,-59.7 L487.5,-61.8 L489.6,-64.0 L491.7,-66.1 L493.8,-68.3 L495.8,-70.5 L497.9,-72.7 L500.0,-75.0 L502.1,-77.3 L504.2,-79.6 L506.3,-81.9 L508.3,-84.2 L510.4,-86.6 L512.5,-89.0 L514.6,-91.4 L516.7,-93.8 L518.8,-96.2 L520.8,-98.7 L522.9,-101.2 L525.0,-103.6 L527.1,-106.1 L529.2,-108.7 L531.3,-111.2 L533.3,-113.7 L535.4,-116.3 L537.5,-118.8 L539.6,-121.4 L541.7,-124.0 L543.8,-126.5 L545.8,-129.1 L547.9,-131.7 L550.0,-134.3 L552.1,-136.9 L554.2,-139.5 L556.3,-142.1 L558.3,-144.8 L560.4,-147.4 L562.5,-150.0 L564.6,-152.6 L566.7,-155.2 L568.8,-157.9 L570.8,-160.5 L572.9,-163.1 L575.0,-165.7 L577.1,-168.3 L579.2,-170.9 L581.3,-173.5 L583.3,-176.0 L585.4,-178.6 L587.5,-181.2 L589.6,-183.7 L591.7,-186.3 L593.8,-188.8 L595.8,-191.3 L597.9,-193.9 L600.0,-196.4 L602.1,-198.8 L604.2,-201.3 L606.3,-203.8 L608.3,-206.2 L610.4,-208.6 L612.5,-211.0 L614.6,-213.4 L616.7,-215.8 L618.8,-218.1 L620.8,-220.4 L622.9,-222.7 L625.0,-225.0 L627.1,-227.3 L629.2,-229.5 L631.3,-231.7 L633.3,-233.9 L635.4,-236.0 L637.5,-238.2 L639.6,-240.3 L641.7,-242.3 L643.8,-244.4 L645.8,-246.4 L647.9,-248.4 L650.0,-250.4 L652.1,-252.3 L654.2,-254.2 L656.3,-256.1 L658.3,-257.9 L660.4,-259.7 L662.5,-261.5 L664.6,-263.2 L666.7,-264.9 L668.8,-266.6 L670.8,-268.2 L672.9,-269.8 L675.0,-271.4 L677.1,-272.9 L679.2,-274.4 L681.3,-275.8 L683.3,-277.2 L685.4,-278.6 L687.5,-279.9 L689.6,-281.2 L691.7,-282.4 L693.8,-283.7 L695.8,-284.8 L697.9,-285.9 L700.0,-287.0 L702.1,-288.1 L704.2,-289.1 L706.3,-290.0 L708.3,-291.0 L710.4,-291.8 L712.5,-292.7 L714.6,-293.4 L716.7,-294.2 L718.8,-294.9 L720.8,-295.5 L722.9,-296.2 L725.0,-296.7 L727.1,-297.2 L729.2,-297.7 L731.3,-298.2 L733.3,-298.5 L735.4,-298.9 L737.5,-299.2 L739.6,-299.4 L741.7,-299.6 L743.8,-299.8 L745.8,-299.9 L747.9,-300.0 L750.0,-300.0" style="fill:none;stroke:#777;stroke-width:1;stroke-dasharray:2 2" />
<path d="M0.0,-150.0 L2.1,-152.6 L4.2,-155.2 L6.3,-157.9 L8.3,-160.5 L10.4,-163.1 L12.5,-165.7 L14.6,-168.3 L16.7,-170.9 L18.8,-173.5 L20.8,-176.0 L22.9,-178.6 L25.0,-181.2 L27.1,-183.7 L29.2,-186.3 L31.3,-188.8 L33.3,-191.3 L35.4,-193.9 L37.5,-196.4 L39.6,-198.8 L41.7,-201.3 L43.8,-203.8 L45.8,-206.2 L47.9,-208.6 L50.0,-211.0 L52.1,-213.4 L54.2,-215.8 L56.3,-218.1 L58.3,-220.4 L60.4,-222.7 L62.5,-225.0 L64.6,-227.3 L66.7,-229.5 L68.8,-231.7 L70.8,-233.9 L72.9,-236.0 L75.0,-238.2 L77.1,-240.3 L79.2,-242.3 L81.3,-244.4 L83.3,-246.4 L85.4,-248.4 L87.5,-250.4 L89.6,-252.3 L91.7,-254.2 L93.8,-256.1 L95.8,-257.9 L97.9,-259.7 L100.0,-261.5 L102.1,-263.2 L104.2,-264.9 L106.3,-266.6 L108.3,-268.2 L110.4,-269.8 L112.5,-271.4 L114.6,-272.9 L116.7,-274.4 L118.8,-275.8 L120.8,-277.2 L122.9,-278.6 L125.0,-279.9 L127.1,-281.2 L129.2,-282.4 L131.3,-283.7 L133.3,-284.8 L135.4,-285.9 L137.5,-287.0 L139.6,-288.1 L141.7,-289.1 L143.8,-290.0 L145.8,-291.0 L147.9,-291.8 L150.0,-292.7 L152.1,-293.4 L154.2,-294.2 L156.3,-294.9 L158.3,-295.5 L160.4,-296.2 L162.5,-296.7 L164.6,-297.2 L166.7,-297.7 L168.8,-298.2 L170.8,-298.5 L172.9,-298.9 L175.0,-299.2 L177.1,-299.4 L179.2,-299.6 L181.3,-299.8 L183.3,-299.9 L185.4,-300.0 L187.5,-300.0 L189.6,-300.0 L191.7,-299.9 L193.8,-299.8 L195.8,-299.6 L197.9,-299.4 L200.0,-299.2 L202.1,-298.9 L204.2,-298.5 L206.3,-298.2 L208.3,-297.7 L210.4,-297.2 L212.5,-296.7 L214.6,-296.2 L216.7,-295.5 L218.8,-294.9 L220.8,-294.2 L222.9,-293.4 L225.0,-292.7 L227.1,-291.8 L229.2,-291.0 L231.3,-290.0 L233.3,-289.1 L235.4,-288.1 L237.5,-287.0 L239.6,-285.9 L241.7,-284.8 L243.8,-283.7 L245.8,-282.4 L247.9,-281.2 L250.0,-279.9 L252.1,-278.6 L254.2,-277.2 L256.3,-275.8 L258.3,-274.4 L260.4,-272.9 L262.5,-271.4 L264.6,-269.8 L266.7,-268.2 L268.8,-266.6 L270.8,-264.9 L272.9,-263.2 L275.0,-261.5 L277.1,-259.7 L279.2,-257.9 L281.3,-256.1 L283.3,-254.2 L285.4,-252.3 L287.5,-250.4 L289.6,-248.4 L291.7,-246.4 L293.8,-244.4 L295.8,-242.3 L297.9,-240.3 L300.0,-238.2 L302.1,-236.0 L304.2,-233.9 L306.3,-231.7 L308.3,-229.5 L310.4,-227.3 L312.5,-225.0 L314.6,-222.7 L316.7,-220.4 L318.8,-218.1 L320.8,-215.8 L322.9,-213.4 L325.0,-211.0 L327.1,-208.6 L329.2,-206.2 L331.3,-203.8 L333.3,-201.3 L335.4,-198.8 L337.5,-196.4 L339.6,-193.9 L341.7,-191.3 L343.8,-188.8 L345.8,-186.3 L347.9,-183.7 L350.0,-181.2 L352.1,-178.6 L354.2,-176.0 L356.3,-173.5 L358.3,-170.9 L360.4,-168.3 L362.5,-165.7 L364.6,-163.1 L366.7,-160.5 L368.8,-157.9 L370.8,-155.2 L372.9,-152.6 L375.0,-150.0 L377.1,-147.4 L379.2,-144.8 L381.3,-142.1 L383.3,-139.5 L385.4,-136.9 L387.5,-134.3 L389.6,-131.7 L391.7,-129.1 L393.8,-126.5 L395.8,-124.0 L397.9,-121.4 L400.0,-118.8 L402.1,-116.3 L404.2,-113.7 L406.3,-111.2 L408.3,-108.7 L410.4,-106.1 L412.5,-103.6 L414.6,-101.2 L416.7,-98.7 L418.8,-96.2 L420.8,-93.8 L422.9,-91.4 L425.0,-89.0 L427.1,-86.6 L429.2,-84.2 L431.3,-81.9 L433.3,-79.6 L435.4,-77.3 L437.5,-75.0 L439.6,-72.7 L441.7,-70.5 L443.8,-68.3 L445.8,-66.1 L447.9,-64.0 L450.0,-61.8 L452.1,-59.7 L454.2,-57.7 L456.3,-55.6 L458.3,-53.6 L460.4,-51.6 L462.5,-49.6 L464.6,-47.7 L466.7,-45.8 L468.8,-43.9 L470.8,-42.1 L472.9,-40.3 L475.0,-38.5 L477.1,-36.8 L479.2,-35.1 L481.3,-33.4 L483.3,-31.8 L485.4,-30.2 L487.5,-28.6 L489.6,-27.1 L491.7,-25.6 L493.8,-24.2 L495.8,-22.8 L497.9,-21.4 L500.0,-20.1 L502.1,-18.8 L504.2,-17.6 L506.3,-16.3 L508.3,-15.2 L510.4,-14.1 L512.5,-13.0 L514.6,-11.9 L516.7,-10.9 L518.8,-10.0 L520.8,-9.0 L522.9,-8.2 L525.0,-7.3 L527.1,-6.6 L529.2,-5.8 L531.3,-5.1 L533.3,-4.5 L535.4,-3.8 L537.5,-3.3 L539.6,-2.8 L541.7,-2.3 L543.8,-1.8 L545.8,-1.5 L547.9,-1.1 L550.0,-0.8 L552.1,-0.6 L554.2,-0.4 L556.3,-0.2 L558.3,-0.1 L560.4,-0.0 L562.5,-0.0 L564.6,-0.0 L566.7,-0.1 L568.8,-0.2 L570.8,-0.4 L572.9,-0.6 L575.0,-0.8 L577.1,-1.1 L579.2,-1.5 L581.3,-1.8 L583.3,-2.3 L585.4,-2.8 L587.5,-3.3 L589.6,-3.8 L591.7,-4.5 L593.8,-5.1 L595.8,-5.8 L597.9,-6.6 L600.0,-7.3 L602.1,-8.2 L604.2,-9.0 L606.3,-10.0 L608.3,-10.9 L610.4,-11.9 L612.5,-13.0 L614.6,-14.1 L616.7,-15.2 L618.8,-16.3 L620.8,-17.6 L622.9,-18.8 L625.0,-20.1 L627.1,-21.4 L629.2,-22.8 L631.3,-24.2 L633.3,-25.6 L635.4,-27.1 L637.5,-28.6 L639.6,-30.2 L641.7,-31.8 L643.8,-33.4 L645.8,-35.1 L647.9,-36.8 L650.0,-38.5 L652.1,-40.3 L654.2,-42.1 L656.3,-43.9 L658.3,-45.8 L660.4,-47.7 L662.5,-49.6 L664.6,-51.6 L666.7,-53.6 L668.8,-55.6 L670.8,-57.7 L672.9,-59.7 L675.0,-61.8 L677.1,-64.0 L679.2,-66.1 L681.3,-68.3 L683.3,-70.5 L685.4,-72.7 L687.5,-75.0 L689.6,-77.3 L691.7,-79.6 L693.8,-81.9 L695.8,-84.2 L697.9,-86.6 L700.0,-89.0 L702.1,-91.4 L704.2,-93.8 L706.3,-96.2 L708.3,-98.7 L710.4,-101.2 L712.5,-103.6 L714.6,-106.1 L716.7,-108.7 L718.8,-111.2 L720.8,-113.7 L722.9,-116.3 L725.0,-118.8 L727.1,-121.4 L729.2,-124.0 L731.3,-126.5 L733.3,-129.1 L735.4,-131.7 L737.5,-134.3 L739.6,-136.9 L741.7,-139.5 L743.8,-142.1 L745.8,-144.8 L747.9,-147.4 L750.0,-150.0" style="fill:none;stroke:#d00;stroke-width:2" />
</g>
<line class="axis" x1="0.0" y1="0" x2="0.0" y2="-300" />
<line class="axis" x1="0" y1="-150.0" x2="750" y2="-150.0" />
<line x1="315" y1="40" x2="345" y2="40" style="fill:none;stroke:#777;stroke-width:1;stroke-dasharray:2 2" />
<text x="350" y="43">cos</text>
<line x1="375" y1="40" x2="405" y2="40" style="fill:none;stroke:#d00;stroke-width:2" />
<text x="410" y="43">sin</text>
</g>
</svg>
